<svg width="42" height="42" viewBox="0 0 42 42" fill="none" xmlns="http://www.w3.org/2000/svg">
<path d="M32.025 9.99253C31.8631 9.83029 31.6708 9.70159 31.4591 9.61377C31.2474 9.52595 31.0204 9.48075 30.7912 9.48075C30.562 9.48075 30.3351 9.52595 30.1234 9.61377C29.9117 9.70159 29.7194 9.83029 29.5575 9.99253L21 18.5325L12.4425 9.97502C12.2805 9.81301 12.0881 9.68449 11.8764 9.5968C11.6648 9.50912 11.4379 9.46399 11.2087 9.46399C10.9796 9.46399 10.7527 9.50912 10.541 9.5968C10.3294 9.68449 10.137 9.81301 9.97499 9.97502C9.81298 10.137 9.68446 10.3294 9.59677 10.5411C9.50909 10.7528 9.46396 10.9796 9.46396 11.2088C9.46396 11.4379 9.50909 11.6648 9.59677 11.8765C9.68446 12.0882 9.81298 12.2805 9.97499 12.4425L18.5325 21L9.97499 29.5575C9.81298 29.7195 9.68446 29.9119 9.59677 30.1236C9.50909 30.3353 9.46396 30.5621 9.46396 30.7913C9.46396 31.0204 9.50909 31.2473 9.59677 31.459C9.68446 31.6707 9.81298 31.863 9.97499 32.025C10.137 32.187 10.3294 32.3156 10.541 32.4032C10.7527 32.4909 10.9796 32.5361 11.2087 32.5361C11.4379 32.5361 11.6648 32.4909 11.8764 32.4032C12.0881 32.3156 12.2805 32.187 12.4425 32.025L21 23.4675L29.5575 32.025C29.7195 32.187 29.9119 32.3156 30.1235 32.4032C30.3352 32.4909 30.5621 32.5361 30.7912 32.5361C31.0204 32.5361 31.2473 32.4909 31.4589 32.4032C31.6706 32.3156 31.863 32.187 32.025 32.025C32.187 31.863 32.3155 31.6707 32.4032 31.459C32.4909 31.2473 32.536 31.0204 32.536 30.7913C32.536 30.5621 32.4909 30.3353 32.4032 30.1236C32.3155 29.9119 32.187 29.7195 32.025 29.5575L23.4675 21L32.025 12.4425C32.69 11.7775 32.69 10.6575 32.025 9.99253Z" fill="#121212"/>
</svg>
