<svg width="42" height="42" viewBox="0 0 42 42" fill="none" xmlns="http://www.w3.org/2000/svg">
<path d="M13.3262 35C12.5446 35 11.8778 34.7246 11.326 34.174C10.7753 33.6233 10.5 32.9565 10.5 32.1737V10.5H8.75V8.74997H15.75V7.40247H26.25V8.74997H33.25V10.5H31.5V32.1737C31.5 32.9787 31.2305 33.6507 30.6915 34.1897C30.1513 34.7299 29.4788 35 28.6738 35H13.3262ZM29.75 10.5H12.25V32.1737C12.25 32.4875 12.3509 32.7454 12.5527 32.9472C12.7546 33.149 13.0124 33.25 13.3262 33.25H28.6738C28.9421 33.25 29.1888 33.138 29.414 32.914C29.638 32.6888 29.75 32.442 29.75 32.1737V10.5ZM17.164 29.75H18.914V14H17.164V29.75ZM23.086 29.75H24.836V14H23.086V29.75Z" fill="#121212"/>
</svg>
