<svg width="42" height="42" viewBox="0 0 42 42" fill="none" xmlns="http://www.w3.org/2000/svg">
<path d="M28.8313 9.46394L32.536 13.1687M31.213 6.20019L21.1908 16.2224C20.6729 16.7396 20.3197 17.3984 20.1758 18.1159L19.25 22.7499L23.884 21.8224C24.6015 21.6789 25.2595 21.3272 25.7775 20.8092L35.7998 10.7869C36.1009 10.4858 36.3398 10.1282 36.5028 9.73473C36.6658 9.34123 36.7497 8.91948 36.7497 8.49357C36.7497 8.06765 36.6658 7.6459 36.5028 7.2524C36.3398 6.8589 36.1009 6.50136 35.7998 6.20019C35.4986 5.89902 35.141 5.66012 34.7475 5.49713C34.354 5.33414 33.9323 5.25024 33.5064 5.25024C33.0805 5.25024 32.6587 5.33414 32.2652 5.49713C31.8717 5.66012 31.5142 5.89902 31.213 6.20019Z" stroke="#1B1B1B" stroke-width="1.66667" stroke-linecap="round" stroke-linejoin="round"/>
<path d="M33.25 26.25V31.5C33.25 32.4283 32.8813 33.3185 32.2249 33.9749C31.5685 34.6313 30.6783 35 29.75 35H10.5C9.57174 35 8.6815 34.6313 8.02513 33.9749C7.36875 33.3185 7 32.4283 7 31.5V12.25C7 11.3217 7.36875 10.4315 8.02513 9.77513C8.6815 9.11875 9.57174 8.75 10.5 8.75H15.75" stroke="#1B1B1B" stroke-width="1.66667" stroke-linecap="round" stroke-linejoin="round"/>
</svg>
