<svg width="42" height="42" viewBox="0 0 42 42" fill="none" xmlns="http://www.w3.org/2000/svg">
<path d="M5.25 27.5625C5.25 27.2144 5.38828 26.8806 5.63442 26.6344C5.88056 26.3883 6.2144 26.25 6.5625 26.25H14.4375C14.7856 26.25 15.1194 26.3883 15.3656 26.6344C15.6117 26.8806 15.75 27.2144 15.75 27.5625C15.75 27.9106 15.6117 28.2444 15.3656 28.4906C15.1194 28.7367 14.7856 28.875 14.4375 28.875H6.5625C6.2144 28.875 5.88056 28.7367 5.63442 28.4906C5.38828 28.2444 5.25 27.9106 5.25 27.5625ZM5.25 19.6875C5.25 19.3394 5.38828 19.0056 5.63442 18.7594C5.88056 18.5133 6.2144 18.375 6.5625 18.375H24.9375C25.2856 18.375 25.6194 18.5133 25.8656 18.7594C26.1117 19.0056 26.25 19.3394 26.25 19.6875C26.25 20.0356 26.1117 20.3694 25.8656 20.6156C25.6194 20.8617 25.2856 21 24.9375 21H6.5625C6.2144 21 5.88056 20.8617 5.63442 20.6156C5.38828 20.3694 5.25 20.0356 5.25 19.6875ZM5.25 11.8125C5.25 11.4644 5.38828 11.1306 5.63442 10.8844C5.88056 10.6383 6.2144 10.5 6.5625 10.5H35.4375C35.7856 10.5 36.1194 10.6383 36.3656 10.8844C36.6117 11.1306 36.75 11.4644 36.75 11.8125C36.75 12.1606 36.6117 12.4944 36.3656 12.7406C36.1194 12.9867 35.7856 13.125 35.4375 13.125H6.5625C6.2144 13.125 5.88056 12.9867 5.63442 12.7406C5.38828 12.4944 5.25 12.1606 5.25 11.8125Z" fill="#121212"/>
</svg>
