<svg width="178" height="204" viewBox="0 0 178 204" fill="none" xmlns="http://www.w3.org/2000/svg">
<g clip-path="url(#clip0_3_13)">
<path d="M116.633 203.007C116.633 202.458 116.409 202.01 116.135 202.01C115.841 202.01 115.636 200.265 115.636 197.771C115.636 195.278 115.43 193.533 115.137 193.533C114.833 193.533 114.638 191.289 114.638 187.799C114.638 184.309 114.833 182.065 115.137 182.065C115.411 182.065 115.636 181.055 115.636 179.821V177.578H112.892C111.383 177.578 110.148 177.802 110.148 178.076C110.148 178.381 107.82 178.575 104.161 178.575C100.503 178.575 98.1749 178.381 98.1749 178.076C98.1749 177.802 97.4052 177.578 96.4644 177.578C95.5237 177.578 94.4173 177.241 94.0057 176.83C93.5941 176.418 92.7923 176.082 92.224 176.082C91.6556 176.082 91.1905 175.857 91.1905 175.583C91.1905 175.309 90.5171 175.084 89.6939 175.084C88.8708 175.084 88.1973 174.86 88.1973 174.586C88.1973 174.312 87.6547 174.087 86.9916 174.087C86.3285 174.087 85.7112 173.919 85.6197 173.713C85.3658 173.142 81.8002 171.594 80.7386 171.594C80.222 171.594 79.6684 171.314 79.5083 170.971C79.2755 170.472 79.1591 170.472 78.9263 170.971C78.7662 171.314 78.189 171.594 77.6435 171.594C77.098 171.594 76.3387 171.875 75.9563 172.217C74.3054 173.697 73.7412 174.087 73.2519 174.087C72.9659 174.087 72.7319 174.312 72.7319 174.586C72.7319 174.86 72.0424 175.084 71.1997 175.084C70.3569 175.084 69.3544 175.365 68.9721 175.708C67.1966 177.299 66.7196 177.577 65.7687 177.577C65.2084 177.577 64.7499 177.802 64.7499 178.076C64.7499 178.35 64.3009 178.575 63.7522 178.575C63.2034 178.575 62.7544 178.775 62.7544 179.019C62.7544 179.264 62.1931 179.605 61.5072 179.777C60.8212 179.949 60.26 180.31 60.26 180.579C60.26 180.848 59.811 181.068 59.2622 181.068C58.7135 181.068 58.2645 181.292 58.2645 181.566C58.2645 181.841 57.8155 182.065 57.2667 182.065C56.7179 182.065 56.2689 182.289 56.2689 182.564C56.2689 182.838 55.82 183.062 55.2712 183.062C54.7224 183.062 54.2734 183.282 54.2734 183.551C54.2734 183.82 53.7122 184.181 53.0262 184.353C52.3403 184.525 51.779 184.866 51.779 185.111C51.779 185.355 51.33 185.555 50.7813 185.555C50.2325 185.555 49.7835 185.78 49.7835 186.054C49.7835 186.328 49.362 186.553 48.8468 186.553C48.3317 186.553 47.6307 186.889 47.2891 187.3C46.9475 187.712 46.3588 188.048 45.9808 188.048C45.6028 188.048 45.2936 188.273 45.2936 188.547C45.2936 188.821 44.7323 189.046 44.0464 189.046C43.3604 189.046 42.7992 189.27 42.7992 189.544C42.7992 189.818 42.3502 190.043 41.8014 190.043C41.2526 190.043 40.8036 190.263 40.8036 190.532C40.8036 190.801 40.2424 191.162 39.5564 191.334C38.8705 191.506 38.3092 191.847 38.3092 192.091C38.3092 192.336 37.748 192.536 37.062 192.536C36.376 192.536 35.8148 192.76 35.8148 193.035C35.8148 193.309 35.3658 193.533 34.817 193.533C34.2683 193.533 33.8193 193.753 33.8193 194.022C33.8193 194.291 33.258 194.652 32.5721 194.824C31.8861 194.996 31.3249 195.337 31.3249 195.582C31.3249 195.826 30.7636 196.026 30.0777 196.026C29.3917 196.026 28.8304 196.251 28.8304 196.525C28.8304 196.799 28.3815 197.023 27.8327 197.023C26.968 197.023 26.8349 197.356 26.8349 199.516C26.8349 202.004 26.6207 202.279 25.1296 201.707C24.2723 201.378 24.0256 199.516 24.8394 199.516C25.1138 199.516 25.3383 199.18 25.3383 198.769C25.3383 197.879 23.4075 197.779 20.845 198.535C18.995 199.08 12.8662 198.232 12.8662 197.431C12.8662 197.207 12.4172 197.023 11.8685 197.023C11.3197 197.023 10.8707 196.799 10.8707 196.525C10.8707 196.251 10.534 196.026 10.1224 196.026C9.71077 196.026 9.37403 195.792 9.37403 195.507C9.37403 194.963 8.8755 194.285 7.00428 192.285C6.38692 191.625 5.88181 190.626 5.88181 190.066C5.88181 189.505 5.65732 189.046 5.38294 189.046C5.10856 189.046 4.88406 188.503 4.88406 187.841C4.88406 187.178 4.60861 186.544 4.27195 186.432C3.3006 186.108 2.02929 172.834 2.66483 169.652C2.98765 168.036 3.11449 168.358 3.92199 172.841C4.41596 175.583 4.83449 179.341 4.85209 181.192C4.87 183.082 5.10279 184.558 5.38294 184.558C5.65732 184.558 5.88181 185.343 5.88181 186.303C5.88181 187.263 6.1063 188.048 6.38069 188.048C6.65507 188.048 6.87956 188.497 6.87956 189.045C6.87956 189.599 7.21215 190.043 7.62789 190.043C8.04363 190.043 8.37623 190.486 8.37623 191.04C8.37623 191.588 8.60072 192.037 8.8751 192.037C9.14948 192.037 9.37397 192.269 9.37397 192.553C9.37397 193.327 12.2949 196.026 13.1328 196.026C13.5349 196.026 13.8639 196.25 13.8639 196.525C13.8639 196.822 15.7762 197.023 18.6032 197.023C21.4302 197.023 23.3425 196.822 23.3425 196.525C23.3425 196.25 24.0083 196.026 24.8222 196.026C26.3055 196.026 29.9316 194.609 30.2437 193.907C30.3351 193.701 30.8402 193.533 31.3661 193.533C31.892 193.533 32.3223 193.309 32.3223 193.034C32.3223 192.76 32.8836 192.536 33.5695 192.536C34.2555 192.536 34.8181 192.368 34.8199 192.162C34.824 191.66 37.7085 190.043 38.5987 190.043C38.988 190.043 39.3066 189.818 39.3066 189.544C39.3066 189.27 39.7716 189.045 40.34 189.045C40.9083 189.045 41.6863 188.765 42.0687 188.422C43.8443 186.831 44.3212 186.552 45.2721 186.552C45.8324 186.552 46.2909 186.328 46.2909 186.054C46.2909 185.78 46.7399 185.555 47.2887 185.555C47.8374 185.555 48.2864 185.331 48.2864 185.057C48.2864 184.782 48.6232 184.558 49.0347 184.558C49.4463 184.558 49.7831 184.338 49.7831 184.069C49.7831 183.8 50.3443 183.439 51.0303 183.267C51.7162 183.095 52.2775 182.754 52.2775 182.509C52.2775 182.265 52.8387 182.065 53.5247 182.065C54.2106 182.065 54.7719 181.84 54.7719 181.566C54.7719 181.292 55.2209 181.068 55.7696 181.068C56.3184 181.068 56.7674 180.848 56.7674 180.579C56.7674 180.309 57.3286 179.949 58.0146 179.777C58.7006 179.604 59.2618 179.264 59.2618 179.019C59.2618 178.775 59.7108 178.575 60.2596 178.575C60.8083 178.575 61.2573 178.35 61.2573 178.076C61.2573 177.802 61.8186 177.577 62.5045 177.577C63.2806 177.577 63.7517 177.295 63.7517 176.829C63.7517 176.414 64.1952 176.081 64.7495 176.081C65.2983 176.081 65.7473 175.857 65.7473 175.583C65.7473 175.309 66.3085 175.084 66.9945 175.084C67.9091 175.084 68.2417 174.818 68.2417 174.087C68.2417 173.539 68.0171 173.09 67.7428 173.09C67.4684 173.09 67.2439 172.772 67.2439 172.383C67.2439 171.995 67.0075 171.598 66.7186 171.502C65.9388 171.242 65.1346 167.832 64.8883 163.741C64.6982 160.583 64.5494 160.126 63.7123 160.126C63.1852 160.126 62.754 160.35 62.754 160.625C62.754 160.899 62.0244 161.13 61.1326 161.139C60.2408 161.148 59.0755 161.484 58.5428 161.887C58.0102 162.29 56.8316 162.619 55.9236 162.619C55.0157 162.619 54.2729 162.843 54.2729 163.118C54.2729 163.392 53.2627 163.616 52.028 163.616C50.7932 163.616 49.7831 163.841 49.7831 164.115C49.7831 164.389 49.0402 164.613 48.1323 164.613C47.2244 164.613 46.0458 164.943 45.5131 165.346C44.9805 165.748 43.8284 166.085 42.9528 166.093C42.0772 166.103 41.2221 166.334 41.0525 166.608C40.8829 166.882 39.8595 167.107 38.7782 167.107C37.6969 167.107 36.8122 167.309 36.8122 167.557C36.8122 167.805 35.7458 168.12 34.4424 168.258C30.9896 168.623 26.8345 169.664 26.8345 170.164C26.8345 170.402 26.0487 170.597 25.0884 170.597C24.1281 170.597 23.3423 170.372 23.3423 170.098C23.3423 169.824 24.1281 169.6 25.0884 169.6C26.3079 169.6 26.8345 169.374 26.8345 168.852C26.8345 168.436 26.391 168.104 25.8367 168.104C25.2879 168.104 24.839 167.879 24.839 167.605C24.839 167.331 24.1624 167.107 23.3355 167.107C22.5087 167.107 21.4423 166.912 20.9658 166.675C19.1875 165.788 16.5491 164.97 14.7366 164.743C13.7076 164.614 12.8657 164.308 12.8657 164.062C12.8657 163.817 11.5375 163.616 9.91395 163.616C8.29041 163.616 6.88655 163.389 6.79415 163.112C6.70167 162.835 5.16759 162.554 3.3851 162.489L0.144251 162.37L0.297528 159.129C0.38183 157.346 0.662448 155.674 0.921124 155.414C1.1798 155.153 1.39146 153.975 1.39146 152.796C1.39146 151.617 1.61595 150.652 1.89033 150.652C2.16471 150.652 2.38921 149.642 2.38921 148.408C2.38921 147.174 2.6137 146.165 2.88808 146.165C3.16246 146.165 3.3949 145.436 3.40463 144.544C3.41444 143.653 3.74315 142.363 4.13529 141.677C4.52742 140.992 4.85619 139.701 4.86592 138.81C4.87573 137.919 5.10811 137.189 5.38249 137.189C5.65688 137.189 5.88137 136.404 5.88137 135.444C5.88137 134.485 6.10586 133.699 6.38024 133.699C6.65462 133.699 6.87911 132.957 6.87911 132.049C6.87911 131.142 7.20872 129.964 7.61157 129.432C8.01441 128.899 8.35117 127.847 8.3599 127.092C8.36857 126.338 8.60026 125.721 8.87464 125.721C9.14902 125.721 9.37351 124.936 9.37351 123.976C9.37351 123.016 9.598 122.231 9.87239 122.231C10.1468 122.231 10.3713 121.713 10.3713 121.08C10.3713 120.447 10.7009 119.493 11.1037 118.961C11.5066 118.428 11.8433 117.6 11.8521 117.12C11.8607 116.64 12.0924 116.248 12.3668 116.248C12.6412 116.248 12.8657 115.462 12.8657 114.502C12.8657 113.543 13.0902 112.757 13.3645 112.757C13.6389 112.757 13.8634 112.333 13.8634 111.813C13.8634 111.294 14.2002 110.74 14.6118 110.583C15.0233 110.425 15.3601 109.84 15.3601 109.283C15.3601 108.726 15.5846 108.27 15.859 108.27C16.1333 108.27 16.3578 108.036 16.3578 107.75C16.3578 107.207 16.8563 106.529 18.7276 104.529C19.3449 103.869 19.8501 103.191 19.8501 103.021C19.8501 102.622 21.1836 101.289 21.5832 101.289C21.7524 101.289 22.4312 100.784 23.0914 100.167C25.0927 98.2971 25.7708 97.7988 26.3144 97.7988C26.6003 97.7988 26.8343 97.5745 26.8343 97.3002C26.8343 97.026 27.2558 96.8016 27.771 96.8016C28.2861 96.8016 28.9871 96.465 29.3287 96.0537C29.6703 95.6423 30.259 95.3058 30.637 95.3058C31.015 95.3058 31.3243 95.0814 31.3243 94.8071C31.3243 94.5329 31.9977 94.3085 32.8209 94.3085C33.644 94.3085 34.3175 94.0842 34.3175 93.8099C34.3175 93.5357 34.7696 93.3113 35.3221 93.3113C36.329 93.3113 36.6375 93.1948 39.721 91.6505C40.635 91.1928 41.9258 90.8182 42.5897 90.8182C43.2534 90.8182 43.7965 90.5939 43.7965 90.3196C43.7965 90.0454 44.3577 89.821 45.0437 89.821C45.7296 89.821 46.2909 89.6216 46.2909 89.3779C46.2909 89.1342 47.0766 88.7874 48.0369 88.6074C48.9973 88.4273 49.783 88.0658 49.783 87.804C49.783 87.5422 50.3443 87.328 51.0302 87.328C51.7162 87.328 52.2774 87.1036 52.2774 86.8293C52.2774 86.5551 52.6916 86.3307 53.1979 86.3307C53.7041 86.3307 54.5371 85.8683 55.0488 85.3031C55.8491 84.4193 55.8774 84.2045 55.2509 83.7693C54.6983 83.3853 54.673 83.2021 55.146 83.0102C55.489 82.8711 55.7697 82.4395 55.7697 82.051C55.7697 81.6625 55.9941 81.3446 56.2685 81.3446C56.5429 81.3446 56.7674 80.9816 56.7674 80.538C56.7674 79.3634 60.4597 75.8599 61.6975 75.8599C62.2786 75.8599 62.7542 76.0282 62.7546 76.2338C62.7556 76.8107 65.222 79.5429 65.4952 79.2696C65.6282 79.1368 65.8795 78.3152 66.0539 77.4439C66.3577 75.9256 66.3039 75.8598 64.7585 75.8598C63.4636 75.8598 63.2085 75.6974 63.4627 75.0352C63.6766 74.4781 63.2085 73.6881 62.0195 72.5995C61.0515 71.7134 60.2596 70.8343 60.2596 70.646C60.2596 69.7108 58.6158 68.8791 56.7674 68.8791C54.7985 68.8791 53.2752 68.0382 53.2752 66.9516C53.2752 66.6553 52.5578 66.565 51.5291 66.7319L49.783 67.0151V64.4983C49.783 62.9366 50.0197 61.8967 50.4067 61.7578C50.8297 61.6061 50.6692 61.213 49.9078 60.5359C49.2904 59.9869 48.7853 59.3797 48.7853 59.1866C48.7853 58.9935 48.4485 58.499 48.037 58.0876C47.6254 57.6762 47.2886 56.7948 47.2886 56.1288C47.2886 55.4628 47.0641 54.9179 46.7898 54.9179C46.046 54.9179 46.158 47.5155 46.9144 46.6725C48.5484 44.8515 48.7852 44.3883 48.7852 43.0139C48.7852 42.2025 48.5046 41.4454 48.1616 41.3316C47.1338 40.9904 47.0001 27.6537 48.0004 25.2609C48.432 24.2284 48.7852 22.7379 48.7852 21.9486C48.7852 21.1594 49.0097 20.5137 49.284 20.5137C49.5584 20.5137 49.7829 19.9527 49.7829 19.2672C49.7829 18.5816 50.0074 18.0206 50.2818 18.0206C50.5562 18.0206 50.7807 17.6762 50.7807 17.2552C50.7807 16.4304 52.1808 14.019 53.0141 13.4085C53.351 13.1616 53.3151 12.899 52.9085 12.6357C51.8578 11.9557 51.5893 9.30598 52.4808 8.41497C52.9177 7.97831 53.2752 7.38065 53.2752 7.08682C53.2752 6.79298 53.4997 6.55259 53.7741 6.55259C54.0484 6.55259 54.2729 6.03653 54.2729 5.40578C54.2729 3.07405 56.5043 2.31402 58.3378 4.02126C59.354 4.96748 59.3904 4.96748 61.0759 4.02126C62.0155 3.49381 63.2264 3.0623 63.7668 3.0623C64.3072 3.0623 64.7494 2.83793 64.7494 2.56369C64.7494 2.28945 65.7596 2.06508 66.9943 2.06508C68.229 2.06508 69.2392 1.84071 69.2392 1.56648C69.2392 1.29224 70.1226 1.06787 71.2022 1.06787C72.2819 1.06787 73.7973 0.827684 74.5696 0.53415C76.3928 -0.158734 88.2867 -0.174265 91.1898 0.512475C92.4246 0.804539 94.2766 1.04898 95.3056 1.05569C96.3345 1.06247 97.1764 1.29225 97.1764 1.56649C97.1764 1.86391 99.0887 2.0651 101.916 2.0651C106.845 2.0651 107.94 2.48793 108.798 4.72096C109 5.24726 109.677 5.55545 110.63 5.55545C111.986 5.55545 112.143 5.71416 112.143 7.08691C112.143 8.61466 113.09 10.043 114.103 10.043C114.955 10.043 114.721 13.8039 113.764 15.4842C113.284 16.3274 112.723 17.0187 112.517 17.0204C112.311 17.0222 112.143 17.8089 112.143 18.7687C112.143 19.7286 111.918 20.5139 111.644 20.5139C111.369 20.5139 111.145 21.5103 111.145 22.7282C111.145 23.9461 110.92 25.0812 110.646 25.2506C109.997 25.6514 109.997 27.4944 110.646 27.4944C110.92 27.4944 111.145 28.504 111.145 29.7381C111.145 30.9721 111.369 31.9818 111.644 31.9818C111.921 31.9818 112.143 33.3114 112.143 34.9735C112.143 36.6355 112.364 37.9652 112.641 37.9652C112.957 37.9652 113.147 41.7581 113.158 48.3114C113.171 56.3406 113.335 58.9367 113.889 59.9043C114.874 61.6276 114.812 66.4884 113.764 69.5604C113.284 70.9684 112.723 72.1951 112.517 72.2865C112.311 72.378 112.143 72.8828 112.143 73.4084C112.143 73.9341 111.918 74.3641 111.644 74.3641C111.369 74.3641 111.145 74.7007 111.145 75.112C111.145 75.5234 110.904 75.86 110.61 75.86C110.029 75.86 108.651 77.0874 108.651 77.6051C108.651 78.1228 107.272 79.3503 106.691 79.3503C106.397 79.3503 106.156 79.5746 106.156 79.8489C106.156 80.1231 105.731 80.3475 105.212 80.3475C104.692 80.3475 104.138 80.684 103.98 81.0954C103.822 81.5068 103.237 81.8433 102.68 81.8433C102.122 81.8433 101.666 82.0677 101.666 82.3419C101.666 82.6162 100.993 82.8405 100.17 82.8405C99.3465 82.8405 98.673 83.0649 98.673 83.3392C98.673 83.6134 98.3363 83.8378 97.9247 83.8378C97.3704 83.8378 97.1764 84.4195 97.1764 86.0815C97.1764 87.3156 97.4009 88.3252 97.6753 88.3252C97.9497 88.3252 98.1742 89.4471 98.1742 90.8182C98.1742 92.1894 97.9497 93.3113 97.6753 93.3113C97.4009 93.3113 97.1764 93.8722 97.1764 94.5578C97.1764 95.2434 96.9519 95.8044 96.6775 95.8044C96.4031 95.8044 96.1786 96.2371 96.1786 96.766C96.1786 97.2949 95.8419 98.0642 95.4303 98.4755C95.0187 98.8869 94.682 99.3738 94.682 99.5576C94.682 99.7413 94.0085 100.521 93.1853 101.289C92.3622 102.058 91.6959 102.989 91.7046 103.359C91.7159 103.807 91.9564 103.72 92.4277 103.098C93.0878 102.227 93.1903 102.22 93.9664 102.996C95.0087 104.037 95.8811 103.781 96.0887 102.372C96.1764 101.776 96.457 101.289 96.7123 101.289C96.9676 101.289 97.1765 100.824 97.1765 100.256C97.1765 99.2567 98.2326 97.7988 98.9567 97.7988C99.5442 97.7988 100.636 96.1141 100.653 95.181C100.662 94.7011 100.893 94.3085 101.168 94.3085C101.442 94.3085 101.666 93.0744 101.666 91.5661C101.666 90.0578 101.442 88.8237 101.168 88.8237C100.893 88.8237 100.669 88.4872 100.669 88.0758C100.669 87.6644 100.428 87.3279 100.134 87.3279C99.5732 87.3279 98.1743 86.1077 98.1743 85.6183C98.1743 85.4616 98.5111 85.3334 98.9226 85.3334C99.3342 85.3334 99.671 85.5578 99.671 85.832C99.671 86.1063 100.025 86.3306 100.458 86.3306C100.89 86.3306 101.901 86.9865 102.703 87.7881C105.355 90.4391 104.476 94.7516 100.549 98.3558C100.066 98.7993 99.6709 99.3202 99.6709 99.5133C99.6709 99.7064 99.3342 100.201 98.9226 100.612C98.4449 101.09 98.1743 102.32 98.1743 104.014C98.1743 107.26 97.1165 108.036 95.4052 106.046C94.2332 104.682 91.4544 104.272 91.0504 105.403C90.9278 105.745 90.635 105.845 90.3996 105.625C90.1642 105.404 90.2954 105.024 90.6911 104.779C91.0867 104.535 91.2593 104.184 91.0745 103.999C90.4478 103.373 89.1944 105.199 89.1944 106.738C89.1944 107.767 88.9488 108.27 88.4461 108.27C88.0265 108.27 87.6978 108.715 87.6978 109.283C87.6978 109.84 88.0345 110.425 88.4461 110.582C88.8576 110.74 89.1944 111.294 89.1944 111.813C89.1944 112.333 89.4189 112.757 89.6933 112.757C89.9677 112.757 90.1922 113.318 90.1922 114.004C90.1922 114.689 90.4167 115.25 90.6911 115.25C90.9654 115.25 91.1899 116.26 91.1899 117.494C91.1899 119.405 91.0421 119.738 90.1922 119.738C89.3177 119.738 89.1944 119.405 89.1944 117.049C89.1944 115.118 88.9832 114.279 88.4461 114.073C88.0345 113.915 87.6978 113.379 87.6978 112.883C87.6978 112.386 87.2488 111.657 86.7 111.261C86.1512 110.866 85.7022 110.256 85.7022 109.905C85.7022 109.554 85.4675 109.267 85.1807 109.267C84.5035 109.267 82.21 106.975 82.21 106.298C82.21 106.011 81.9855 105.777 81.7111 105.777C81.4367 105.777 81.2122 104.542 81.2122 103.034C81.2122 101.526 81.4367 100.292 81.7111 100.292C81.9855 100.292 82.21 99.5065 82.21 98.5466C82.21 97.5868 81.9695 96.8015 81.6755 96.8015C80.9848 96.8015 79.7157 98.07 79.7157 98.7603C79.7157 99.0541 79.4912 99.2945 79.2168 99.2945C78.9424 99.2945 78.7179 99.6471 78.7179 100.078C78.7179 100.974 77.5529 102.286 76.7581 102.286C76.4641 102.286 76.2236 102.623 76.2236 103.034C76.2236 103.445 75.9991 103.782 75.7247 103.782C75.4503 103.782 75.2258 104.149 75.2258 104.597C75.2258 105.046 74.6646 105.933 73.9786 106.568C73.2927 107.203 72.7314 108.071 72.7314 108.495C72.7314 108.919 72.3972 109.267 71.9888 109.267C71.0282 109.267 69.2393 107.735 69.2393 106.912C69.2393 106.562 69.0148 106.275 68.7404 106.275C68.4661 106.275 68.2416 105.939 68.2416 105.527C68.2416 105.116 68.0171 104.779 67.7427 104.779C67.4683 104.779 67.2438 104.234 67.2438 103.568C67.2438 102.902 66.907 102.021 66.4955 101.61C66.0839 101.198 65.7472 100.522 65.7472 100.107C65.7472 99.6927 65.5227 99.2147 65.2483 99.0452C64.9739 98.8758 64.7494 98.3015 64.7494 97.7693C64.7494 97.237 64.5249 96.8015 64.2505 96.8015C63.9761 96.8015 63.7516 96.5187 63.7516 96.1731C63.7516 95.8275 63.1904 94.9398 62.5044 94.2004C61.8185 93.461 61.2572 92.491 61.2572 92.0448C61.2572 91.5987 60.4715 90.471 59.5111 89.5388C58.5508 88.6067 57.765 87.5035 57.765 87.0872C57.765 86.6629 57.3268 86.3305 56.7673 86.3305C56.2185 86.3305 55.7695 86.5549 55.7695 86.8291C55.7695 87.1033 55.4328 87.3277 55.0212 87.3277C54.6096 87.3277 54.2729 87.5478 54.2729 87.8168C54.2729 88.0858 53.7117 88.4467 53.0257 88.6188C52.3397 88.7909 51.7785 89.1317 51.7785 89.3762C51.7785 89.6207 51.3295 89.8208 50.7807 89.8208C50.232 89.8208 49.783 90.0452 49.783 90.3194C49.783 90.5936 49.2552 90.818 48.6101 90.818C47.965 90.818 46.3816 91.3789 45.0915 92.0645C43.8014 92.7501 42.3086 93.3111 41.7744 93.3111C41.2403 93.3111 40.8031 93.5354 40.8031 93.8097C40.8031 94.0839 40.2418 94.3083 39.5559 94.3083C38.8699 94.3083 38.3087 94.5327 38.3087 94.8069C38.3087 95.0811 37.7635 95.3055 37.0971 95.3055C36.4307 95.3055 35.5488 95.6421 35.1373 96.0534C34.7258 96.4648 33.9239 96.8014 33.3556 96.8014C32.7872 96.8014 32.3222 97.0257 32.3222 97.3C32.3222 97.5742 31.8732 97.7986 31.3244 97.7986C30.7756 97.7986 30.3266 98.023 30.3266 98.2972C30.3266 98.5714 30.0001 98.7958 29.601 98.7958C29.2019 98.7958 28.3141 99.3568 27.6281 100.042C26.9422 100.728 26.249 101.289 26.0878 101.289C25.1533 101.289 19.8501 106.782 19.8501 107.75C19.8501 108.036 19.6817 108.271 19.4759 108.273C18.974 108.276 17.3556 111.16 17.3556 112.049C17.3556 112.439 17.1311 112.757 16.8567 112.757C16.5823 112.757 16.3578 113.192 16.3578 113.725C16.3578 114.257 16.1334 114.831 15.859 115.001C15.5846 115.17 15.3601 115.717 15.3601 116.216C15.3601 116.714 15.0234 117.402 14.6118 117.743C14.2002 118.084 13.8635 118.897 13.8635 119.549C13.8635 120.201 13.639 120.735 13.3646 120.735C13.0902 120.735 12.8657 121.52 12.8657 122.48C12.8657 123.44 12.6667 124.225 12.4235 124.225C12.1802 124.225 11.8535 124.842 11.6975 125.596C11.0285 128.83 10.1163 131.704 9.759 131.704C9.54699 131.704 9.37354 132.602 9.37354 133.699C9.37354 134.796 9.17261 135.693 8.92706 135.693C8.68151 135.693 8.35937 136.534 8.21122 137.563C7.79827 140.429 6.69753 144.169 6.26685 144.169C6.05484 144.169 5.8814 145.179 5.8814 146.413C5.8814 147.647 5.6569 148.657 5.38252 148.657C5.10814 148.657 4.88365 149.529 4.88365 150.594C4.88365 151.66 4.54829 153.174 4.13841 153.96C3.72853 154.745 3.39177 156.104 3.39007 156.979C3.38838 157.854 3.16252 158.709 2.88814 158.878C1.84917 159.52 2.45426 160.125 4.13534 160.125C5.09568 160.125 5.88141 160.349 5.88141 160.623C5.88141 160.898 6.97567 161.122 8.31319 161.122C9.65071 161.122 11.6992 161.459 12.8658 161.87C14.0324 162.281 15.8565 162.618 16.9195 162.618C17.9826 162.618 18.8524 162.842 18.8524 163.117C18.8524 163.391 19.8626 163.615 21.0973 163.615C22.332 163.615 23.3422 163.84 23.3422 164.114C23.3422 164.388 23.9596 164.62 24.7141 164.628C25.4687 164.638 26.5218 164.974 27.0544 165.376C27.5871 165.779 28.4138 166.108 28.8916 166.108C29.3695 166.108 29.9029 166.557 30.0771 167.105C30.8117 169.419 31.3243 167.78 31.3243 163.116C31.3243 160.374 31.5271 158.13 31.775 158.13C32.0229 158.13 32.353 156.055 32.5085 153.518C32.6639 150.981 32.9327 147.84 33.1057 146.538C33.3158 144.956 33.2378 144.169 32.8712 144.169C32.5692 144.169 32.3221 143.608 32.3221 142.923C32.3221 142.237 32.0976 141.676 31.8232 141.676C31.5488 141.676 31.3243 141.115 31.3243 140.429C31.3243 139.744 31.5488 139.183 31.8232 139.183C32.0976 139.183 32.3221 139.423 32.3221 139.717C32.3221 140.011 32.6792 140.608 33.1157 141.045C33.7897 141.718 33.9764 141.732 34.3552 141.133C34.6005 140.746 34.8046 140.149 34.8088 139.806C34.813 139.463 35.041 139.183 35.3154 139.183C35.6304 139.183 35.8142 142.673 35.8142 148.657C35.8142 154.64 35.6304 158.13 35.3154 158.13C35.0334 158.13 34.8165 159.554 34.8165 161.404C34.8165 163.205 34.5961 165.089 34.3267 165.592C33.9516 166.293 34.0369 166.584 34.6914 166.835C35.1613 167.015 35.6249 166.925 35.7216 166.635C35.8183 166.345 36.3838 166.1 36.9783 166.09C37.5728 166.081 38.6205 165.752 39.3064 165.36C39.9923 164.968 41.2832 164.64 42.175 164.63C43.0668 164.62 43.7964 164.388 43.7964 164.114C43.7964 163.839 44.8066 163.615 46.0413 163.615C47.276 163.615 48.2862 163.391 48.2862 163.116C48.2862 162.842 49.0158 162.611 49.9076 162.602C50.7993 162.592 51.9647 162.257 52.4974 161.854C53.03 161.451 54.2086 161.122 55.1166 161.122C56.0245 161.122 56.7673 160.898 56.7673 160.623C56.7673 160.349 57.7775 160.125 59.0122 160.125C60.247 160.125 61.2571 159.9 61.2571 159.626C61.2571 159.352 62.0444 159.127 63.0065 159.127C64.2508 159.127 65.0691 158.768 65.8403 157.881C66.4367 157.195 67.3145 156.634 67.7909 156.634C68.2673 156.634 68.7703 156.354 68.9087 156.011C69.11 155.513 69.1682 155.513 69.1997 156.011C69.2476 156.769 74.2279 156.892 74.2279 156.136C74.2279 155.861 75.1126 155.637 76.1939 155.637C77.2753 155.637 78.2987 155.413 78.4682 155.138C78.7917 154.615 80.7132 154.432 80.7132 154.925C80.7132 155.71 79.1147 156.634 77.7555 156.634C76.9128 156.634 76.2232 156.859 76.2232 157.133C76.2232 157.407 75.4936 157.639 74.6019 157.649C73.7101 157.659 72.4192 157.988 71.7332 158.379C71.0473 158.771 69.7564 159.1 68.8646 159.11L67.2432 159.127V163.116C67.2432 165.442 67.4511 167.105 67.7421 167.105C68.0165 167.105 68.241 167.785 68.241 168.617C68.241 170.398 70.7904 173.227 71.9834 172.769C72.3945 172.612 72.7309 172.282 72.7309 172.038C72.7309 171.793 73.2921 171.592 73.9781 171.592C74.664 171.592 75.2253 171.368 75.2253 171.094C75.2253 170.819 75.6743 170.595 76.223 170.595C76.7718 170.595 77.2208 170.393 77.2208 170.145C77.2208 169.589 80.1743 168.517 80.7413 168.867C81.2749 169.197 85.2028 167.977 85.2028 167.482C85.2028 167.274 85.5396 167.105 85.9511 167.105C86.3627 167.105 86.6995 166.88 86.6995 166.606C86.6995 166.332 87.8255 166.107 89.2018 166.107C91.8119 166.107 95.6793 167.073 95.6793 167.725C95.6793 167.932 96.1957 168.102 96.8267 168.102C97.4578 168.102 98.2311 168.359 98.5452 168.673C98.974 169.101 99.1997 168.911 99.4512 167.909C99.9533 165.91 97.406 163.614 94.6861 163.614C93.5861 163.614 92.6861 163.404 92.6861 163.146C92.6861 162.888 91.8957 162.608 90.9296 162.523C89.9636 162.437 89.1217 162.143 89.0588 161.869C88.8673 161.034 92.0282 161.014 93.6273 161.84C94.4543 162.268 95.5911 162.617 96.1535 162.617C96.7159 162.617 97.1761 162.842 97.1761 163.116C97.1761 163.39 97.6411 163.614 98.2095 163.614C99.4342 163.614 100.668 164.723 100.668 165.823C100.668 166.253 100.893 166.606 101.167 166.606C101.441 166.606 101.666 166.943 101.666 167.354C101.666 167.765 101.495 168.102 101.285 168.102C101.076 168.102 100.683 168.607 100.412 169.224C99.9205 170.344 97.176 171.158 97.176 170.184C97.176 169.921 96.6148 169.565 95.9288 169.393C95.2429 169.221 94.6816 168.86 94.6816 168.591C94.6816 168.322 94.1204 168.102 93.4344 168.102C92.7485 168.102 92.1872 167.878 92.1872 167.603C92.1872 167.329 91.2892 167.105 90.1918 167.105C89.0942 167.105 88.1963 167.329 88.1963 167.603C88.1963 167.878 87.635 168.102 86.9491 168.102C86.2631 168.102 85.7019 168.326 85.7019 168.601C85.7019 168.875 85.2713 169.099 84.7449 169.099C83.4415 169.099 82.2096 169.61 82.2096 170.15C82.2096 170.395 82.8831 170.595 83.7063 170.595C84.5294 170.595 85.2029 170.819 85.2029 171.094C85.2029 171.368 85.8764 171.592 86.6996 171.592C87.5227 171.592 88.1962 171.817 88.1962 172.091C88.1962 172.365 88.6023 172.589 89.0986 172.589C89.5949 172.589 90.4368 172.919 90.9694 173.322C91.5021 173.724 92.5552 174.061 93.3098 174.069C94.0643 174.079 94.6817 174.31 94.6817 174.584C94.6817 174.858 95.5664 175.083 96.6477 175.083C97.7291 175.083 98.7525 175.307 98.9221 175.581C99.0916 175.855 101 176.08 103.163 176.08C105.325 176.08 107.233 175.855 107.403 175.581C107.573 175.307 109.494 175.083 111.673 175.083C113.852 175.083 115.635 174.874 115.635 174.618C115.635 174.363 117.711 174.053 120.249 173.929C126.851 173.607 135.193 172.637 136.207 172.074C136.683 171.809 139.209 171.592 141.819 171.592C144.43 171.592 146.565 171.383 146.565 171.127C146.565 170.871 148.754 170.551 151.429 170.417C157.373 170.118 167.406 168.909 168.764 168.327C170.284 167.677 172.008 165.764 172.008 164.73C172.008 164.221 172.338 163.369 172.741 162.837C173.162 162.28 173.48 160.758 173.489 159.252C173.499 157.812 173.729 156.634 174.004 156.634C174.289 156.634 174.503 155.138 174.503 153.144C174.503 151.149 174.717 149.653 175.002 149.653C175.276 149.653 175.51 148.363 175.522 146.786C175.534 145.209 175.868 143.022 176.263 141.925C176.659 140.828 176.985 139.313 176.99 138.559C176.993 137.805 177.222 137.188 177.496 137.188C177.802 137.188 177.995 139.598 177.995 143.421C177.995 147.243 177.802 149.653 177.496 149.653C177.222 149.653 176.997 150.627 176.997 151.818C176.997 153.008 176.663 155.084 176.254 156.43C175.846 157.776 175.509 159.943 175.506 161.246C175.502 162.549 175.276 163.615 175.002 163.615C174.727 163.615 174.503 164.4 174.503 165.36C174.503 166.32 174.278 167.105 174.004 167.105C173.729 167.105 173.497 167.385 173.488 167.728C173.463 168.698 171.688 170.595 170.806 170.595C170.37 170.595 170.013 170.82 170.013 171.094C170.013 171.379 168.516 171.592 166.521 171.592C164.6 171.592 163.028 171.776 163.028 172.001C163.028 172.411 153.852 173.453 146.191 173.912C143.928 174.048 142.075 174.367 142.075 174.621C142.075 174.875 140.279 175.083 138.084 175.083H134.093V180.318C134.093 183.476 133.895 185.554 133.594 185.554C133.314 185.554 133.095 186.943 133.095 188.725C133.095 191.525 132.95 192.005 131.848 192.832C131.162 193.347 130.601 193.949 130.601 194.171C130.601 194.758 128.243 197.022 127.63 197.022C127.343 197.022 127.107 197.19 127.106 197.396C127.102 197.897 124.217 199.515 123.327 199.515C122.937 199.515 122.619 199.739 122.619 200.013C122.619 200.288 121.609 200.512 120.374 200.512C118.484 200.512 118.129 200.665 118.129 201.48C118.129 202.012 118.353 202.586 118.628 202.756C119.547 203.324 119.139 204.002 117.879 204.002C116.965 204.002 116.632 203.737 116.632 203.005L116.633 203.007ZM120.126 197.522C120.126 197.248 120.687 197.024 121.373 197.024C122.059 197.024 122.62 196.799 122.62 196.525C122.62 196.251 122.947 196.026 123.346 196.026C123.745 196.026 125.317 194.812 126.838 193.327C129.477 190.752 129.604 190.511 129.604 188.092C129.604 186.697 129.829 185.556 130.103 185.556C130.378 185.556 130.602 184.447 130.602 183.092C130.602 181.737 130.827 180.49 131.101 180.32C131.375 180.151 131.6 178.858 131.6 177.449C131.6 175.455 131.467 175.018 131.001 175.484C130.672 175.813 129.157 176.081 127.634 176.08C126.111 176.078 123.013 176.461 120.749 176.93L116.634 177.783V185.766C116.634 194.547 117.36 198.021 119.196 198.021C119.707 198.021 120.126 197.796 120.126 197.522ZM86.7008 107.023C86.7008 106.338 86.9253 105.777 87.1996 105.777C87.474 105.777 87.6985 105.439 87.6985 105.026C87.6985 104.613 89.0455 102.949 90.6918 101.329C92.3381 99.709 93.6851 98.0275 93.6851 97.5928C93.6851 97.1579 93.9096 96.802 94.184 96.802C94.4584 96.802 94.6829 96.4929 94.6829 96.1152C94.6829 95.7374 95.0428 95.1297 95.4827 94.7648C96.1103 94.2443 96.2382 93.4059 96.0767 90.8712C95.9564 88.9825 95.6242 87.5588 95.2769 87.4431C94.9502 87.3342 94.6829 86.4634 94.6829 85.508C94.6829 83.9201 94.5863 83.8053 93.5604 84.1717C91.7081 84.8332 83.2086 84.0992 83.2086 83.2777C83.2086 83.0374 82.8044 82.8408 82.3103 82.8408C80.9577 82.8408 78.727 81.6783 78.7225 80.971C78.7206 80.6282 78.4839 80.3477 78.1971 80.3477C77.4063 80.3477 75.0675 77.8434 75.4913 77.4505C75.6952 77.2614 75.9622 77.3872 76.0847 77.73C76.2073 78.0728 76.6255 78.3533 77.0142 78.3533C77.4029 78.3533 77.7209 78.5776 77.7209 78.8519C77.7209 79.1261 78.2822 79.3505 78.9681 79.3505C79.6541 79.3505 80.2153 79.5749 80.2153 79.8491C80.2153 80.1233 81.1001 80.3477 82.1814 80.3477C83.2627 80.3477 84.27 80.5459 84.4197 80.788C84.9065 81.5753 89.9092 81.9154 92.2177 81.3182C93.4363 81.0029 95.2753 80.632 96.3042 80.494C97.3331 80.3559 98.175 80.0421 98.175 79.7967C98.175 79.5513 98.7362 79.3505 99.4222 79.3505C100.108 79.3505 100.669 79.1261 100.669 78.8519C100.669 78.5776 101.014 78.3533 101.435 78.3533C103.14 78.3533 108.652 73.6231 108.652 72.1598C108.652 71.7269 108.876 71.3728 109.15 71.3728C109.425 71.3728 109.657 70.9801 109.665 70.5002C109.675 70.0203 110.011 69.1921 110.414 68.6597C111.422 67.3269 111.411 61.5941 110.398 60.5813C109.511 59.694 109.468 58.0798 110.183 52.4123C110.484 50.025 110.567 46.1811 110.373 43.575L110.03 38.9628H108.593C107.803 38.9628 107.156 39.1872 107.156 39.4614C107.156 39.7356 106.723 39.96 106.194 39.96C105.664 39.96 104.895 40.2966 104.483 40.7079C103.499 41.6915 98.8643 41.7165 97.8908 40.7435C96.6517 39.5051 97.0151 38.0805 98.6625 37.7189C99.479 37.5396 100.387 37.5412 100.68 37.7225C100.973 37.9035 101.757 37.6958 102.421 37.2608C103.085 36.8258 104.085 36.4699 104.644 36.4699C105.202 36.4699 105.659 36.2455 105.659 35.9713C105.659 35.697 106.333 35.4727 107.156 35.4727C107.979 35.4727 108.652 35.697 108.652 35.9713C108.652 36.2455 108.877 36.4699 109.151 36.4699C109.802 36.4699 109.802 32.6336 109.151 32.2316C108.877 32.0621 108.652 30.4782 108.652 28.7119C108.652 26.9454 108.443 25.5002 108.187 25.5002C107.931 25.5002 107.65 24.8832 107.563 24.1291C107.421 22.8907 107.163 22.7255 104.911 22.4237C101.407 21.9542 99.6727 21.4678 99.6727 20.9546C99.6727 20.7123 99.1114 20.5141 98.4255 20.5141C97.3327 20.5141 97.1783 20.7302 97.1783 22.2593C97.1783 23.9213 97.0951 24.0044 95.4322 24.0044C94.4718 24.0044 93.6861 23.831 93.6861 23.6192C93.6861 23.4073 92.9004 22.811 91.94 22.2941C90.9797 21.7772 90.1939 21.1653 90.1939 20.9342C90.1939 20.7031 89.7582 20.5141 89.2256 20.5141C88.6931 20.5141 88.1185 20.2897 87.949 20.0155C87.2729 18.9221 86.7018 19.6234 86.7018 21.5469C86.7018 23.5958 85.2709 25.9467 84.8295 24.6232C84.716 24.2829 84.3986 24.0044 84.1242 24.0044C83.8498 24.0044 82.8622 23.2191 81.9296 22.2593C80.0145 20.2882 78.7197 20.0009 78.7197 21.547C78.7197 23.492 75.6782 25.0277 75.0869 23.3812C74.8173 22.6306 72.7331 24.7953 72.7331 25.8259C72.7331 26.1954 72.5086 26.4976 72.2342 26.4976C71.9599 26.4976 71.7354 26.9463 71.7354 27.4948C71.7354 28.0433 71.5593 28.4921 71.344 28.4921C71.1288 28.4921 70.5274 29.2213 70.0076 30.1125C69.4878 31.0038 68.6536 32.096 68.1539 32.5394C67.6543 32.983 67.2454 33.5038 67.2454 33.6969C67.2454 34.2207 65.8929 35.4726 65.3271 35.4726C65.056 35.4726 64.7413 35.1942 64.6278 34.8538C64.3578 34.0443 63.0277 35.3258 62.5382 36.8671C62.3464 37.4713 61.98 37.9657 61.7241 37.9657C61.0959 37.9657 61.1274 43.809 61.7577 44.1984C62.0321 44.3679 62.2565 45.3628 62.2565 46.4093C62.2565 48.123 62.1083 48.3417 60.7653 48.6101C59.1329 48.9364 57.7666 48.5956 57.7666 47.862C57.7666 47.6047 57.1781 46.8059 56.4589 46.0871C54.7607 44.3898 52.7904 44.3898 51.0921 46.0871C49.8979 47.2807 49.7845 47.742 49.7845 51.4056C49.7845 53.7475 49.9921 55.4172 50.2834 55.4172C50.5577 55.4172 50.7822 55.7698 50.7822 56.2008C50.7822 57.0963 51.9473 58.4089 52.742 58.4089C53.036 58.4089 53.2766 58.6231 53.2766 58.8849C53.2766 59.1467 54.0623 59.5082 55.0227 59.6883C56.2862 59.9252 56.7687 60.2759 56.7687 60.9574C56.7687 61.4754 56.9932 61.8992 57.2676 61.8992C57.542 61.8992 57.7665 62.1396 57.7665 62.4334C57.7665 63.1237 59.0357 64.3922 59.7263 64.3922C60.0203 64.3922 60.2608 64.7287 60.2608 65.1401C60.2608 65.5515 60.4854 65.888 60.7597 65.888C61.0341 65.888 61.2586 66.1301 61.2586 66.426C61.2586 67.107 65.4977 71.3727 66.1744 71.3727C66.4519 71.3727 66.8215 71.8214 66.9957 72.3699C67.1699 72.9184 67.5218 73.3672 67.7776 73.3672C68.0335 73.3672 68.2429 73.8054 68.2429 74.3409C68.2429 74.8765 68.5209 75.9245 68.8606 76.6698C69.3517 77.747 69.3517 78.0671 68.8606 78.2307C68.5209 78.3439 68.2429 78.8666 68.2429 79.3922C68.2429 79.9178 68.0184 80.3479 67.744 80.3479C66.8802 80.3479 67.1993 81.3446 68.4697 82.6142C69.1432 83.2873 69.8327 83.8381 70.0019 83.8381C70.5096 83.8381 71.7351 85.2231 71.7351 85.7968C71.7351 86.0907 72.184 86.3311 72.7328 86.3311C73.2816 86.3311 73.7306 86.5554 73.7306 86.8297C73.7306 87.1039 74.0673 87.3283 74.4789 87.3283C74.8905 87.3283 75.2272 87.5484 75.2272 87.8174C75.2272 88.0864 75.7885 88.4473 76.4744 88.6194C77.1604 88.7914 77.7216 89.1323 77.7216 89.3768C77.7216 89.6213 78.0671 89.8214 78.4894 89.8214C79.5017 89.8214 83.2093 93.5116 83.2093 94.5191C83.2093 94.952 83.4338 95.3061 83.7082 95.3061C83.9826 95.3061 84.207 96.0782 84.207 97.0218C84.207 97.9655 83.9826 98.8763 83.7082 99.0458C83.4338 99.2152 83.2093 100.673 83.2093 102.285C83.2093 104.794 83.4067 105.427 84.5812 106.684C86.3032 108.526 86.7008 108.59 86.7008 107.023ZM94.9675 66.525C93.0578 66.0384 90.9113 62.7913 91.6558 61.5148C91.9385 61.0298 92.1648 60.9256 92.1733 61.2764C92.1808 61.6192 92.5252 61.8997 92.9368 61.8997C93.3484 61.8997 93.6851 62.2362 93.6851 62.6476C93.6851 63.0589 94.0219 63.3955 94.4334 63.3955C94.845 63.3955 95.1818 63.6199 95.1818 63.8941C95.1818 64.1684 95.6308 64.3927 96.1795 64.3927C96.7283 64.3927 97.1773 64.1684 97.1773 63.8941C97.1773 63.6199 97.6333 63.3955 98.1907 63.3955C98.7481 63.3955 99.3333 63.059 99.4913 62.6476C99.6493 62.2362 100.203 61.8997 100.723 61.8997C101.464 61.8997 101.667 62.2639 101.667 63.5907C101.667 65.0995 101.451 65.3681 99.6616 66.0837C97.6427 66.891 96.7384 66.9762 94.9675 66.525ZM94.6828 55.9499C94.6828 55.6942 94.2338 55.3425 93.685 55.1684C93.1362 54.9943 92.6873 54.4183 92.6873 53.8883C92.6873 53.257 93.0314 52.9246 93.685 52.9246C94.2338 52.9246 94.6828 53.149 94.6828 53.4232C94.6828 53.6975 95.244 53.9218 95.93 53.9218C96.6159 53.9218 97.1772 54.1462 97.1772 54.4205C97.1772 54.6947 97.5139 54.9191 97.9255 54.9191C98.3371 54.9191 98.6738 54.6947 98.6738 54.4205C98.6738 54.1462 98.9954 53.9218 99.3885 53.9218C100.481 53.9218 100.862 52.049 99.9551 51.1424C99.5248 50.7123 99.1727 50.1863 99.1727 49.9736C99.1727 49.7608 98.6676 49.3433 98.0502 49.0457C96.9933 48.5362 96.986 48.4992 97.9256 48.4118C100.761 48.148 101.667 49.1115 101.667 52.3904C101.667 53.7812 101.443 54.9191 101.168 54.9191C100.894 54.9191 100.669 55.2556 100.669 55.667C100.669 56.2487 100.004 56.4149 97.6762 56.4149C96.0299 56.4149 94.6828 56.2057 94.6828 55.9499ZM53.9025 50.7061C51.7243 48.4267 51.788 47.5826 54.0947 48.1612C55.7593 48.5788 57.7651 50.6246 57.7651 51.9048C57.7651 53.5863 56.187 53.0966 53.9025 50.7061ZM83.2074 48.4373C83.2074 47.8888 82.9829 47.44 82.7085 47.44C82.4342 47.44 82.2096 46.7669 82.2096 45.9442C82.2096 45.1215 82.4342 44.4483 82.7085 44.4483C82.9829 44.4483 83.2074 43.9996 83.2074 43.4511C83.2074 42.7748 83.54 42.4539 84.2408 42.4539C85.8369 42.4539 86.6995 43.6785 86.6995 45.9442C86.6995 48.2098 85.8368 49.4346 84.2408 49.4346C83.54 49.4346 83.2074 49.1136 83.2074 48.4373ZM103.786 48.6887C102.97 47.7618 103.014 44.437 103.857 43.3264C104.87 41.9933 105.833 42.276 106.877 44.2126C107.772 45.8748 107.779 46.0665 106.998 47.703C106.125 49.5329 104.869 49.9183 103.786 48.6887ZM86.6994 42.0538C86.6994 41.3357 81.6415 40.5795 79.761 41.0165C77.2601 41.5977 75.2252 41.5555 75.2252 40.9225C75.2252 40.0558 76.5729 38.9637 77.6425 38.9637C78.188 38.9637 78.7241 38.6945 78.8338 38.3654C79.1118 37.532 87.8018 37.532 88.0797 38.3654C88.3213 39.0897 92.6861 39.1842 92.6861 38.4651C92.6861 38.1909 93.1351 37.9665 93.6839 37.9665C94.2326 37.9665 94.6816 38.1909 94.6816 38.4651C94.6816 38.7393 95.0184 38.9637 95.4299 38.9637C96.4698 38.9637 96.3671 40.6328 95.2659 41.6288C94.5839 42.2457 93.3876 42.454 90.5266 42.454C88.4218 42.454 86.6994 42.2739 86.6994 42.0538ZM72.2464 105.717C72.65 105.135 73.2608 104.366 73.6038 104.007C73.9468 103.649 74.2274 103.226 74.2274 103.067C74.2274 102.907 74.9283 102.05 75.785 101.161C76.6416 100.272 77.7069 98.9844 78.152 98.2988C78.5972 97.6132 79.4679 96.6434 80.0866 96.1435C81.5092 94.9944 81.4967 94.622 79.9884 93.2106C77.8394 91.1998 77.28 90.8195 76.4715 90.8195C76.0363 90.8195 75.0751 90.2586 74.3354 89.573C73.5956 88.8874 72.7569 88.3265 72.4717 88.3265C72.1865 88.3265 71.6295 87.8777 71.234 87.3292C70.8385 86.7807 70.3292 86.332 70.1024 86.332C69.6605 86.332 64.7486 81.5658 64.7486 81.1371C64.7486 80.6902 61.5309 77.3569 61.0995 77.3569C60.2033 77.3569 57.7642 80.8081 57.7642 82.0761C57.7642 82.4972 57.5397 82.8416 57.2653 82.8416C56.9909 82.8416 56.7664 83.3006 56.7664 83.8615C56.7664 84.9227 58.8279 87.3292 59.7371 87.3292C60.024 87.3292 60.2586 87.6658 60.2586 88.0771C60.2586 88.4885 60.4832 88.8251 60.7575 88.8251C61.0319 88.8251 61.2564 89.2738 61.2564 89.8223C61.2564 90.3708 61.5552 90.8195 61.9204 90.8195C62.2856 90.8195 62.8848 91.3805 63.2519 92.0661C63.619 92.7517 64.106 93.3126 64.334 93.3126C64.562 93.3126 64.7486 93.7614 64.7486 94.3098C64.7486 94.8583 64.9488 95.3071 65.1934 95.3071C65.438 95.3071 65.779 95.868 65.9512 96.5536C66.1234 97.2392 66.4845 97.8001 66.7536 97.8001C67.0228 97.8001 67.243 98.3611 67.243 99.0467C67.243 99.7323 67.4675 100.293 67.7419 100.293C68.0162 100.293 68.2408 100.742 68.2408 101.29C68.2408 101.839 68.4652 102.288 68.7396 102.288C69.014 102.288 69.2385 102.849 69.2385 103.534C69.2385 104.31 69.5212 104.781 69.9868 104.781C70.4026 104.781 70.7351 105.224 70.7351 105.778C70.7351 107.07 71.3249 107.046 72.2464 105.717ZM65.9982 195.034C65.5928 194.378 66.1677 192.537 66.7778 192.537C67.0337 192.537 67.2431 192.088 67.2431 191.54C67.2431 190.992 67.4676 190.543 67.742 190.543C68.0164 190.543 68.2409 190.206 68.2409 189.795C68.2409 189.383 68.4654 189.047 68.7397 189.047C69.0141 189.047 69.2386 188.721 69.2386 188.322C69.2386 187.923 69.7999 187.035 70.4858 186.35C71.1718 185.664 71.733 184.757 71.733 184.333C71.733 183.909 71.9575 183.562 72.2319 183.562C72.5063 183.562 72.7308 183.322 72.7308 183.028C72.7308 182.734 73.0114 182.181 73.3544 181.799C74.6959 180.304 75.2252 179.603 75.2252 179.324C75.2252 179.164 75.6505 178.577 76.1703 178.019C76.8169 177.325 77.2263 177.184 77.4664 177.573C77.6594 177.885 77.4588 178.536 77.0201 179.021C76.5817 179.505 76.223 180.164 76.223 180.485C76.223 180.806 75.9985 181.069 75.7241 181.069C75.4497 181.069 75.2252 181.63 75.2252 182.316C75.2252 183.001 75.0007 183.562 74.7263 183.562C74.4519 183.562 74.2274 184.011 74.2274 184.559C74.2274 185.113 73.8948 185.557 73.4791 185.557C73.0634 185.557 72.7308 186 72.7308 186.554C72.7308 187.102 72.5063 187.551 72.2319 187.551C71.9575 187.551 71.733 187.888 71.733 188.299C71.733 188.71 71.5085 189.047 71.2341 189.047C70.9597 189.047 70.7353 189.387 70.7353 189.804C70.7353 190.22 69.9495 191.323 68.9892 192.255C68.0288 193.187 67.2431 194.18 67.2431 194.46C67.2431 195.218 66.3627 195.623 65.9982 195.034ZM103.202 174.794C103.226 174.213 103.344 174.095 103.503 174.493C103.647 174.853 103.629 175.283 103.464 175.449C103.298 175.614 103.18 175.32 103.202 174.794ZM104.16 170.348C104.16 168.376 103.951 167.107 103.625 167.107C102.935 167.107 101.666 165.839 101.666 165.148C101.666 164.471 102.311 164.461 102.979 165.129C103.262 165.412 103.869 165.501 104.326 165.325C104.946 165.088 105.158 164.384 105.158 162.566C105.158 161.225 105.382 160.127 105.657 160.127C105.931 160.127 106.156 159.446 106.156 158.615C106.156 157.783 106.492 156.297 106.904 155.313C107.315 154.328 107.652 152.653 107.652 151.589C107.652 150.526 107.877 149.656 108.151 149.656C108.425 149.656 108.65 148.646 108.65 147.412C108.65 146.178 108.874 145.168 109.149 145.168C109.423 145.168 109.648 144.479 109.648 143.637C109.648 142.795 109.984 141.769 110.396 141.358C110.808 140.946 111.144 139.84 111.144 138.9C111.144 137.96 111.369 137.191 111.643 137.191C111.918 137.191 112.142 136.293 112.142 135.196C112.142 134.099 112.367 133.202 112.641 133.202C112.915 133.202 113.14 132.572 113.14 131.801C113.14 131.031 113.469 129.965 113.872 129.433C114.275 128.901 114.612 127.848 114.621 127.094C114.63 126.34 114.861 125.723 115.135 125.723C115.41 125.723 115.634 124.937 115.634 123.977C115.634 123.018 115.859 122.232 116.133 122.232C116.408 122.232 116.632 121.896 116.632 121.484C116.632 121.073 116.969 120.736 117.38 120.736C117.792 120.736 118.129 120.512 118.129 120.238C118.129 119.964 118.578 119.739 119.126 119.739C119.675 119.739 120.124 119.515 120.124 119.241C120.124 118.966 120.793 118.742 121.611 118.742C123.97 118.742 127.109 117.288 127.109 116.195C127.109 115.676 126.884 115.252 126.61 115.252C126.335 115.252 126.111 114.691 126.111 114.005C126.111 113.32 125.911 112.759 125.667 112.759C125.424 112.759 125.077 111.973 124.897 111.014C124.716 110.054 124.355 109.268 124.093 109.268C123.831 109.268 123.616 108.707 123.616 108.022C123.616 107.336 123.392 106.775 123.118 106.775C122.843 106.775 122.619 106.327 122.619 105.778C122.619 105.23 122.409 104.781 122.153 104.781C121.898 104.781 121.528 104.276 121.332 103.659C120.924 102.373 117.192 98.7975 116.258 98.7975C115.915 98.7975 115.634 98.5731 115.634 98.2989C115.634 98.0247 115.298 97.8003 114.886 97.8003C114.475 97.8003 114.138 97.5759 114.138 97.3017C114.138 97.0274 113.689 96.8031 113.14 96.8031C112.591 96.8031 112.142 96.583 112.142 96.3139C112.142 96.0449 111.581 95.684 110.895 95.512C110.209 95.3399 109.648 94.9991 109.648 94.7545C109.648 94.51 109.199 94.31 108.65 94.31C108.101 94.31 107.652 94.1289 107.652 93.9076C107.652 93.6863 107.035 93.2441 106.28 92.9248L104.908 92.3444L106.53 92.5793C109.756 93.0467 111.144 93.4344 111.144 93.868C111.144 94.1111 111.706 94.31 112.392 94.31C113.078 94.31 113.639 94.5344 113.639 94.8086C113.639 95.0828 114.072 95.3072 114.601 95.3072C115.13 95.3072 115.9 95.6438 116.311 96.0551C116.723 96.4665 117.413 96.8031 117.844 96.8031C118.275 96.8031 118.628 97.0274 118.628 97.3017C118.628 97.5759 118.87 97.8003 119.166 97.8003C119.689 97.8003 123.617 101.504 123.617 101.997C123.617 102.133 124.178 103.07 124.864 104.08C125.55 105.091 126.111 106.447 126.111 107.094C126.111 107.742 126.335 108.271 126.61 108.271C126.884 108.271 127.109 108.754 127.109 109.345C127.109 110.629 129.404 115.623 130.496 116.714C131.07 117.288 131.322 117.327 131.475 116.868C131.613 116.455 132.829 116.249 135.132 116.249C137.1 116.249 138.583 116.035 138.583 115.75C138.583 115.472 139.958 115.249 141.701 115.246C143.416 115.243 145.921 114.907 147.268 114.498C148.615 114.09 151.464 113.756 153.599 113.756C155.734 113.756 157.62 113.532 157.79 113.257C157.972 112.962 161.038 112.759 165.302 112.759C169.773 112.759 172.507 112.569 172.507 112.26C172.507 111.986 173.741 111.761 175.251 111.761C177.586 111.761 177.994 111.898 177.994 112.683C177.994 113.509 177.393 113.634 172.12 113.899C168.889 114.061 165.619 114.432 164.854 114.723C164.088 115.014 161.007 115.252 158.007 115.252C154.702 115.252 152.551 115.448 152.551 115.75C152.551 116.046 150.722 116.249 148.062 116.249C145.592 116.249 143.572 116.444 143.572 116.682C143.572 116.92 141.876 117.224 139.803 117.357C137.731 117.49 135.778 117.856 135.463 118.17C135.148 118.485 133.477 118.742 131.748 118.742C129.985 118.742 128.605 118.961 128.605 119.241C128.605 119.518 127.275 119.739 125.612 119.739C123.949 119.739 122.619 119.961 122.619 120.238C122.619 120.512 121.833 120.736 120.872 120.736C119.653 120.736 119.126 120.962 119.126 121.484C119.126 121.896 118.902 122.232 118.627 122.232C118.353 122.232 118.129 122.654 118.129 123.169C118.129 123.683 117.792 124.384 117.38 124.725C116.969 125.067 116.632 126.104 116.632 127.03C116.632 127.956 116.407 128.714 116.133 128.714C115.859 128.714 115.634 129.5 115.634 130.459C115.634 131.419 115.461 132.205 115.249 132.205C114.855 132.205 113.804 135.647 113.307 138.562C113.155 139.453 112.831 140.182 112.586 140.182C112.342 140.182 112.142 141.08 112.142 142.177C112.142 143.274 111.918 144.171 111.643 144.171C111.369 144.171 111.137 145.013 111.128 146.041C111.119 147.069 110.783 148.346 110.38 148.879C109.977 149.411 109.648 150.589 109.648 151.496C109.648 152.404 109.423 153.146 109.149 153.146C108.874 153.146 108.65 154.268 108.65 155.639C108.65 157.011 108.447 158.132 108.199 158.132C107.951 158.132 107.628 159.198 107.481 160.501C107.081 164.045 105.994 168.603 105.549 168.603C105.334 168.603 105.158 169.725 105.158 171.096C105.158 172.468 104.933 173.589 104.659 173.589C104.378 173.589 104.16 172.177 104.16 170.348ZM19.8484 171.096C19.8484 170.822 20.5219 170.598 21.345 170.598C22.1682 170.598 22.8417 170.822 22.8417 171.096C22.8417 171.37 22.1682 171.595 21.345 171.595C20.5219 171.595 19.8484 171.37 19.8484 171.096ZM1.42916 165.479C-0.0102733 164.745 -0.512748 163.617 0.599868 163.617C1.03431 163.617 1.38976 163.841 1.38976 164.115C1.38976 164.39 1.83874 164.614 2.38752 164.614C2.94183 164.614 3.38528 164.947 3.38528 165.362C3.38528 166.265 3.01324 166.287 1.42916 165.479ZM101.366 161.373C100.492 160.21 100.139 160.127 96.058 160.127C93.4764 160.127 91.6866 159.922 91.6866 159.628C91.6866 159.354 92.9214 159.129 94.4305 159.129C95.9396 159.129 97.1743 158.905 97.1743 158.631C97.1743 158.357 97.7355 158.132 98.4215 158.132C99.1075 158.132 99.6687 158.357 99.6687 158.631C99.6687 158.905 100.068 159.129 100.556 159.129C101.045 159.129 101.768 159.578 102.163 160.127C102.559 160.675 103.169 161.124 103.52 161.124C103.871 161.124 104.159 161.46 104.159 161.872C104.159 163.057 102.394 162.742 101.366 161.373ZM103.161 157.135C103.161 156.861 102.824 156.636 102.412 156.636C102.001 156.636 101.664 156.412 101.664 156.138C101.664 155.863 101.324 155.639 100.909 155.639C100.494 155.639 99.7164 155.366 99.1815 155.032C98.4175 154.555 97.7225 154.555 95.9384 155.032C94.6896 155.366 92.5486 155.639 91.1805 155.639C89.8125 155.639 88.6933 155.863 88.6933 156.138C88.6933 156.412 88.2443 156.636 87.6955 156.636C87.1467 156.636 86.6977 156.412 86.6977 156.138C86.6977 155.863 87.0345 155.639 87.4461 155.639C87.8576 155.639 88.1944 155.432 88.1944 155.18C88.1944 154.928 89.6536 154.565 91.4371 154.374C93.2206 154.183 94.6799 153.829 94.6799 153.586C94.6799 153.344 96.0268 153.146 97.6731 153.146C99.3195 153.146 100.666 153.355 100.666 153.611C100.666 153.867 101.059 154.202 101.539 154.356C102.519 154.67 105.156 156.83 105.156 157.318C105.156 157.491 104.707 157.633 104.159 157.633C103.61 157.633 103.161 157.409 103.161 157.135ZM101.415 152.391C98.5706 149.793 96.6376 149.005 95.9271 150.154C95.7576 150.428 95.2391 150.654 94.7751 150.656C94.3112 150.657 93.2885 150.994 92.5027 151.404C91.7168 151.813 90.426 152.149 89.634 152.149C88.8423 152.149 88.1945 152.373 88.1945 152.647C88.1945 152.921 87.4274 153.146 86.4899 153.146C85.5525 153.146 84.7106 153.335 84.6191 153.565C84.5277 153.796 83.7232 154.127 82.8315 154.301C81.5922 154.542 81.2101 154.443 81.2101 153.881C81.2101 153.397 81.7203 153.146 82.7068 153.146C83.5299 153.146 84.2034 152.921 84.2034 152.647C84.2034 152.373 84.7459 152.149 85.409 152.149C86.0721 152.149 86.6895 151.98 86.781 151.775C86.9848 151.316 91.7616 149.656 92.8761 149.656C93.3195 149.656 93.6822 149.431 93.6822 149.157C93.6822 148.876 95.0845 148.658 96.8914 148.658C99.6343 148.658 100.145 148.799 100.409 149.63C100.579 150.164 101.155 150.741 101.69 150.91C102.225 151.08 102.662 151.428 102.662 151.684C102.662 151.939 102.903 152.149 103.197 152.149C103.991 152.149 105.156 153.461 105.156 154.357C105.156 155.595 104.607 155.306 101.415 152.391ZM146.064 150.018C143.091 148.566 142.124 146.186 143.819 144.491C144.231 144.08 144.568 143.605 144.568 143.436C144.568 142.92 146.982 140.68 147.538 140.68C147.825 140.68 148.06 140.344 148.06 139.933C148.06 139.521 148.284 139.185 148.559 139.185C149.363 139.185 149.139 136.331 148.309 136.013C147.44 135.679 147.298 134.697 148.118 134.697C148.997 134.697 152.55 138.476 152.55 139.411C152.55 140.355 153.693 141.678 154.51 141.678C154.803 141.678 155.044 142.126 155.044 142.675C155.044 143.223 155.234 143.672 155.467 143.672C155.699 143.672 156.377 144.095 156.973 144.612C157.886 145.403 157.976 145.762 157.546 146.893C156.862 148.691 156.066 149.42 154.287 149.878C151.602 150.569 147.342 150.642 146.064 150.018ZM151.427 142.882C152.677 142.63 152.973 141.678 151.801 141.678C151.39 141.678 151.053 141.453 151.053 141.179C151.053 140.905 150.604 140.681 150.055 140.681C149.506 140.681 149.058 140.905 149.058 141.179C149.058 141.453 148.608 141.678 148.06 141.678C147.399 141.678 147.062 142.01 147.062 142.663C147.062 143.675 147.403 143.692 151.427 142.882ZM41.7985 132.453C41.7985 131.219 41.6171 130.21 41.3954 130.21C40.9824 130.21 39.9723 123.934 39.4893 118.368C39.3406 116.654 39.0136 115.251 38.7626 115.251C38.5116 115.251 38.3062 113.905 38.3062 112.26C38.3062 110.598 38.0845 109.268 37.8074 109.268C37.533 109.268 37.3085 108.819 37.3085 108.271C37.3085 107.09 37.6246 107.02 38.5914 107.986C38.9833 108.378 39.304 109.612 39.304 110.728C39.304 111.845 39.5208 112.758 39.7857 112.758C40.0507 112.758 40.417 113.885 40.5998 115.263C40.7826 116.64 41.1271 117.887 41.3653 118.034C41.6035 118.182 41.7985 119.635 41.7985 121.264C41.7985 122.907 42.0207 124.227 42.2973 124.227C42.5982 124.227 42.7962 126.304 42.7962 129.462C42.7962 132.62 42.5982 134.697 42.2973 134.697C42.0229 134.697 41.7985 133.687 41.7985 132.453ZM48.7829 119.24C48.7829 113.922 48.9688 110.764 49.2818 110.764C49.5562 110.764 49.7807 111.437 49.7807 112.259C49.7807 113.082 49.9731 113.755 50.2083 113.755C50.7843 113.755 51.2489 121.003 50.9114 124.724C50.6856 127.213 50.4835 127.716 49.7114 127.716C48.8424 127.716 48.7829 127.173 48.7829 119.24ZM83.2052 111.324C83.2052 111.084 82.5187 110.751 81.6796 110.583C80.8405 110.415 79.8303 109.955 79.4347 109.559C78.6164 108.741 78.4606 106.775 79.2142 106.775C79.4886 106.775 79.7131 107.015 79.7131 107.309C79.7131 108.101 81.0255 109.268 81.9167 109.268C82.7563 109.268 84.7018 110.738 84.7018 111.373C84.7018 111.586 84.3651 111.761 83.9535 111.761C83.5419 111.761 83.2052 111.564 83.2052 111.324Z" fill="#1B1B1B"/>
</g>
<defs>
<clipPath id="clip0_3_13">
<rect width="178" height="204" fill="white"/>
</clipPath>
</defs>
</svg>
